HIERARCHY
ROOT Hips
{
	OFFSET	0.0000	0.0000	0.0000
	CHANNELS 6 Xposition Yposition Zposition Xrotation Yrotation Zrotation
	JOINT Spine
	{
		OFFSET	0.0000	9.5923	-5.1908
		CHANNELS 3 Xrotation Yrotation Zrotation
		JOINT Spine1
		{
			OFFSET	0.0000	8.7537	0.4573
			CHANNELS 3 Xrotation Yrotation Zrotation
			JOINT Spine2
			{
				OFFSET	0.0000	10.8317	-2.4110
				CHANNELS 3 Xrotation Yrotation Zrotation
				JOINT Neck
				{
					OFFSET	0.0000	24.4089	-0.5076
					CHANNELS 3 Xrotation Yrotation Zrotation
					JOINT Head
					{
						OFFSET	-0.0001	13.7840	3.7493
						CHANNELS 3 Xrotation Yrotation Zrotation
						End Site
						{
							OFFSET	0.0001	19.2597	0.5750
						}
					}
				}
				JOINT LeftShoulder
				{
					OFFSET	2.4643	23.5558	8.0704
					CHANNELS 3 Xrotation Yrotation Zrotation
					JOINT LeftArm
					{
						OFFSET	14.3966	3.3787	-5.4672
						CHANNELS 3 Xrotation Yrotation Zrotation
						JOINT LeftForeArm
						{
							OFFSET	30.5813	-0.1084	-0.2650
							CHANNELS 3 Xrotation Yrotation Zrotation
							JOINT LeftHand
							{
								OFFSET	25.5113	0.0740	-0.1528
								CHANNELS 3 Xrotation Yrotation Zrotation
								JOINT LeftHandIndex1
								{
									OFFSET	9.8875	0.8647	2.7462
									CHANNELS 3 Xrotation Yrotation Zrotation
									JOINT LeftHandIndex2
									{
										OFFSET	3.6984	-0.9018	0.6517
										CHANNELS 3 Xrotation Yrotation Zrotation
										JOINT LeftHandIndex3
										{
											OFFSET	2.5248	-0.6158	0.4450
											CHANNELS 3 Xrotation Yrotation Zrotation
											End Site
											{
												OFFSET	1.7966	-0.5363	0.2914
											}
										}
									}
								}
								JOINT LeftHandMiddle1
								{
									OFFSET	10.0350	0.9986	0.2391
									CHANNELS 3 Xrotation Yrotation Zrotation
									JOINT LeftHandMiddle2
									{
										OFFSET	4.5729	0.0128	-0.0270
										CHANNELS 3 Xrotation Yrotation Zrotation
										JOINT LeftHandMiddle3
										{
											OFFSET	2.5347	0.0078	-0.0154
											CHANNELS 3 Xrotation Yrotation Zrotation
											End Site
											{
												OFFSET	2.2767	-0.1608	0.0031
											}
										}
									}
								}
								JOINT LeftHandRing1
								{
									OFFSET	9.5103	0.6665	-2.2500
									CHANNELS 3 Xrotation Yrotation Zrotation
									JOINT LeftHandRing2
									{
										OFFSET	4.1494	-0.2101	-0.2598
										CHANNELS 3 Xrotation Yrotation Zrotation
										JOINT LeftHandRing3
										{
											OFFSET	2.3645	-0.1190	-0.1485
											CHANNELS 3 Xrotation Yrotation Zrotation
											End Site
											{
												OFFSET	2.0907	-0.2570	-0.0988
											}
										}
									}
								}
								JOINT LeftHandPinky1
								{
									OFFSET	8.8251	-0.6706	-3.8857
									CHANNELS 3 Xrotation Yrotation Zrotation
									JOINT LeftHandPinky2
									{
										OFFSET	2.5523	-0.5322	-0.7045
										CHANNELS 3 Xrotation Yrotation Zrotation
										JOINT LeftHandPinky3
										{
											OFFSET	1.8716	-0.3898	-0.5170
											CHANNELS 3 Xrotation Yrotation Zrotation
											End Site
											{
												OFFSET	1.6612	-0.4564	-0.3811
											}
										}
									}
								}
								JOINT LeftHandThumb1
								{
									OFFSET	2.0454	-1.5481	1.5506
									CHANNELS 3 Xrotation Yrotation Zrotation
									JOINT LeftHandThumb2
									{
										OFFSET	3.8081	-1.2506	2.8711
										CHANNELS 3 Xrotation Yrotation Zrotation
										JOINT LeftHandThumb3
										{
											OFFSET	2.5076	-0.8973	1.8066
											CHANNELS 3 Xrotation Yrotation Zrotation
											End Site
											{
												OFFSET	1.8440	-0.6348	1.2627
											}
										}
									}
								}
							}
						}
					}
				}
				JOINT RightShoulder
				{
					OFFSET	-2.4643	23.5558	8.0703
					CHANNELS 3 Xrotation Yrotation Zrotation
					JOINT RightArm
					{
						OFFSET	-14.3992	3.3793	-5.4681
						CHANNELS 3 Xrotation Yrotation Zrotation
						JOINT RightForeArm
						{
							OFFSET	-30.5813	-0.1084	-0.2650
							CHANNELS 3 Xrotation Yrotation Zrotation
							JOINT RightHand
							{
								OFFSET	-25.5113	0.0740	-0.1528
								CHANNELS 3 Xrotation Yrotation Zrotation
								JOINT RightHandIndex1
								{
									OFFSET	-9.8875	0.8648	2.7462
									CHANNELS 3 Xrotation Yrotation Zrotation
									JOINT RightHandIndex2
									{
										OFFSET	-3.6984	-0.9018	0.6517
										CHANNELS 3 Xrotation Yrotation Zrotation
										JOINT RightHandIndex3
										{
											OFFSET	-2.5248	-0.6160	0.4450
											CHANNELS 3 Xrotation Yrotation Zrotation
											End Site
											{
												OFFSET	-1.7966	-0.5363	0.2914
											}
										}
									}
								}
								JOINT RightHandMiddle1
								{
									OFFSET	-10.0350	0.9986	0.2391
									CHANNELS 3 Xrotation Yrotation Zrotation
									JOINT RightHandMiddle2
									{
										OFFSET	-4.5729	0.0128	-0.0270
										CHANNELS 3 Xrotation Yrotation Zrotation
										JOINT RightHandMiddle3
										{
											OFFSET	-2.5347	0.0078	-0.0155
											CHANNELS 3 Xrotation Yrotation Zrotation
											End Site
											{
												OFFSET	-2.2767	-0.1608	0.0031
											}
										}
									}
								}
								JOINT RightHandRing1
								{
									OFFSET	-9.5103	0.6665	-2.2500
									CHANNELS 3 Xrotation Yrotation Zrotation
									JOINT RightHandRing2
									{
										OFFSET	-4.1494	-0.2101	-0.2598
										CHANNELS 3 Xrotation Yrotation Zrotation
										JOINT RightHandRing3
										{
											OFFSET	-2.3646	-0.1190	-0.1485
											CHANNELS 3 Xrotation Yrotation Zrotation
											End Site
											{
												OFFSET	-2.0907	-0.2571	-0.0988
											}
										}
									}
								}
								JOINT RightHandPinky1
								{
									OFFSET	-8.8252	-0.6706	-3.8857
									CHANNELS 3 Xrotation Yrotation Zrotation
									JOINT RightHandPinky2
									{
										OFFSET	-2.5523	-0.5322	-0.7045
										CHANNELS 3 Xrotation Yrotation Zrotation
										JOINT RightHandPinky3
										{
											OFFSET	-1.8716	-0.3897	-0.5170
											CHANNELS 3 Xrotation Yrotation Zrotation
											End Site
											{
												OFFSET	-1.6612	-0.4564	-0.3811
											}
										}
									}
								}
								JOINT RightHandThumb1
								{
									OFFSET	-2.0454	-1.5480	1.5505
									CHANNELS 3 Xrotation Yrotation Zrotation
									JOINT RightHandThumb2
									{
										OFFSET	-3.8081	-1.2508	2.8712
										CHANNELS 3 Xrotation Yrotation Zrotation
										JOINT RightHandThumb3
										{
											OFFSET	-2.5075	-0.8972	1.8066
											CHANNELS 3 Xrotation Yrotation Zrotation
											End Site
											{
												OFFSET	-1.8440	-0.6348	1.2627
											}
										}
									}
								}
							}
						}
					}
				}
			}
		}
	}
	JOINT RightUpLeg
	{
		OFFSET	-10.2614	4.3360	-0.8458
		CHANNELS 3 Xrotation Yrotation Zrotation
		JOINT RightLeg
		{
			OFFSET	-0.8211	-44.6324	0.0000
			CHANNELS 3 Xrotation Yrotation Zrotation
			JOINT RightFoot
			{
				OFFSET	0.0000	-43.8263	0.0000
				CHANNELS 3 Xrotation Yrotation Zrotation
				JOINT RightToeBase
				{
					OFFSET	0.0000	-4.8169	10.0728
					CHANNELS 3 Xrotation Yrotation Zrotation
					End Site
					{
						OFFSET	0.0000	0.0000	6.7574
					}
				}
			}
		}
	}
	JOINT LeftUpLeg
	{
		OFFSET	10.2613	4.3363	-0.8458
		CHANNELS 3 Xrotation Yrotation Zrotation
		JOINT LeftLeg
		{
			OFFSET	0.8212	-44.6327	0.0000
			CHANNELS 3 Xrotation Yrotation Zrotation
			JOINT LeftFoot
			{
				OFFSET	0.0000	-43.8263	0.0000
				CHANNELS 3 Xrotation Yrotation Zrotation
				JOINT LeftToeBase
				{
					OFFSET	0.0000	-4.8169	10.0728
					CHANNELS 3 Xrotation Yrotation Zrotation
					End Site
					{
						OFFSET	0.0000	0.0000	6.7574
					}
				}
			}
		}
	}
}
MOTION
Frames:	6
Frame Time: 0.0333333000
	0.0000	91.4421	3.0005	0.000000	0.000000	0.000000	0.000000	0.000000	0.000000	0.000000	0.000000	0.000000	0.000000	0.000000	0.000000	0.000000	0.000000	0.000000	0.000000	0.000000	0.000000	0.000000	0.000000	0.000000	0.000000	0.000000	0.000000	0.000000	0.000000	0.000000	0.000000	0.000000	0.000000	0.000000	0.000000	0.000000	0.000000	0.000000	0.000000	0.000000	0.000000	0.000000	0.000000	0.000000	0.000000	0.000000	0.000000	0.000000	0.000000	0.000000	0.000000	0.000000	0.000000	0.000000	0.000000	0.000000	0.000000	0.000000	0.000000	0.000000	0.000000	0.000000	0.000000	0.000000	0.000000	0.000000	0.000000	0.000000	0.000000	0.000000	0.000000	0.000000	0.000000	0.000000	0.000000	0.000000	0.000000	0.000000	0.000000	0.000000	0.000000	0.000000	0.000000	0.000000	0.000000	0.000000	0.000000	0.000000	0.000000	0.000000	0.000000	0.000000	0.000000	0.000000	0.000000	0.000000	0.000000	0.000000	0.000000	0.000000	0.000000	0.000000	0.000000	0.000000	0.000000	0.000000	0.000000	0.000000	0.000000	0.000000	0.000000	0.000000	0.000000	0.000000	0.000000	0.000000	0.000000	0.000000	0.000000	0.000000	0.000000	0.000000	0.000000	0.000000	0.000000	0.000000	0.000000	0.000000	0.000000	0.000000	0.000000	0.000000	0.000000	0.000000	0.000000	0.000000	0.000000	0.000000	0.000000	0.000000	0.000000	0.000000	0.000000	0.000000	0.000000	0.000000	0.000000	0.000000	0.000000	0.000000	0.000000	0.000000	0.000000	0.000000	0.000000	0.000000	0.000000	0.000000	0.000000
	63.5225	93.1488	-37.1478	-0.977595	19.716500	-1.033072	0.000000	0.000003	0.000000	1.388255	0.687321	-0.287514	4.643624	2.264180	-1.020090	1.518755	0.144000	-0.551038	4.121439	0.027487	3.967693	0.000000	-0.000001	-14.721460	15.742800	-11.084350	-63.834510	0.079483	-26.230110	0.009013	0.000000	0.000000	0.000000	0.000000	0.000000	0.000000	0.000000	0.000000	0.000000	0.000000	0.000000	0.000000	0.000000	0.000000	0.000000	0.000000	0.000000	0.000000	0.000000	0.000000	0.000000	0.000000	0.000000	0.000000	0.000000	0.000000	0.000000	0.000000	0.000000	0.000000	0.000000	0.000000	0.000000	0.000000	0.000000	0.000000	0.000000	0.000000	0.000000	0.000000	0.000000	0.000000	0.000000	0.000000	0.000000	0.000000	0.000000	0.000000	-0.000001	0.000000	15.435780	22.635010	36.405670	54.359410	0.078613	25.969310	-0.008720	0.000001	0.000001	-0.000001	0.000001	0.000001	-0.000001	0.000001	0.000001	-0.000001	0.000001	0.000001	-0.000001	0.000001	0.000001	-0.000001	0.000001	0.000001	-0.000001	0.000001	0.000001	-0.000001	0.000001	0.000001	-0.000001	0.000001	0.000001	-0.000001	0.000001	0.000001	-0.000001	0.000001	0.000001	-0.000001	0.000001	0.000001	-0.000001	0.000001	0.000001	-0.000001	0.000001	0.000001	-0.000001	0.000001	0.000001	-0.000001	0.000001	0.000001	-0.000001	-3.747296	0.921851	2.661824	13.828450	-0.000002	0.000000	3.119435	-1.716548	-0.762962	-0.091406	0.000001	0.000000	2.710393	1.106270	5.098009	1.382964	0.000000	0.000000	1.064088	0.153875	0.078592	-0.000001	-0.000005	-0.000001
	63.0236	93.2563	-37.3508	-0.362139	20.319360	-1.489700	0.000000	0.000000	0.000000	1.378421	0.650885	-0.273049	4.610220	2.145574	-0.974053	1.903847	0.068123	-0.257082	3.421816	0.005250	4.262285	0.000000	-0.000001	-14.899190	16.803430	-15.886600	-61.934860	0.075277	-24.984290	0.007642	0.000001	0.000000	0.000000	0.000000	0.000000	0.000000	0.000000	0.000000	0.000000	0.000000	0.000000	0.000000	0.000000	0.000000	0.000000	0.000000	0.000000	0.000000	0.000000	0.000000	0.000000	0.000000	0.000000	0.000000	0.000000	0.000000	0.000000	0.000000	0.000000	0.000000	0.000000	0.000000	0.000000	0.000000	0.000000	0.000000	0.000000	0.000000	0.000000	0.000000	0.000000	0.000000	0.000000	0.000000	0.000000	0.000000	0.000000	0.000000	0.000000	0.000000	15.431730	22.443050	36.791570	54.217170	0.084370	27.644360	-0.010719	0.000000	0.000000	0.000000	0.000000	0.000000	0.000000	0.000000	0.000000	0.000000	0.000000	0.000000	0.000000	0.000000	0.000000	0.000000	0.000000	0.000000	0.000000	0.000000	0.000000	0.000000	0.000000	0.000000	0.000000	0.000000	0.000000	0.000000	0.000000	0.000000	0.000000	0.000000	0.000000	0.000000	0.000000	0.000000	0.000000	0.000000	0.000000	0.000000	0.000000	0.000000	0.000000	0.000000	0.000000	0.000000	0.000000	0.000000	0.000000	-5.019298	0.289728	2.920423	15.193110	0.000000	0.000000	4.348979	-2.113996	-0.906939	-0.137110	-0.000001	0.000000	1.119931	0.900462	5.557609	3.242725	-0.000002	0.000000	0.626375	-0.560648	-0.261719	0.000000	0.000000	0.000000
	62.6015	93.4703	-37.5794	-0.065422	21.019830	-1.768357	0.000000	0.000000	0.000000	1.408270	0.829250	-0.106064	4.701649	2.752200	-0.432201	1.838214	0.002236	-0.000421	2.635801	-0.028335	4.716708	0.000000	0.000002	-14.542480	17.790950	-12.719770	-63.695740	0.098296	-31.514230	0.016228	0.000000	-0.000002	0.000000	0.000000	0.000000	0.000000	0.000000	0.000000	0.000000	0.000000	0.000000	0.000000	0.000000	0.000000	0.000000	0.000000	0.000000	0.000000	0.000000	0.000000	0.000000	0.000000	0.000000	0.000000	0.000000	0.000000	0.000000	0.000000	0.000000	0.000000	0.000000	0.000000	0.000000	0.000000	0.000000	0.000000	0.000000	0.000000	0.000000	0.000000	0.000000	0.000000	0.000000	0.000000	0.000000	0.000000	0.000000	0.000000	0.000000	0.000005	15.445060	19.707150	33.660200	55.954420	0.089192	29.011900	-0.012529	-0.000002	-0.000002	0.000001	0.000000	0.000000	0.000000	0.000000	0.000000	0.000000	0.000000	0.000000	0.000000	0.000000	0.000000	0.000000	0.000000	0.000000	0.000000	0.000000	0.000000	0.000000	0.000000	0.000000	0.000000	0.000000	0.000000	0.000000	0.000000	0.000000	0.000000	0.000000	0.000000	0.000000	0.000000	0.000000	0.000000	0.000000	0.000000	0.000000	0.000000	0.000000	0.000000	0.000000	0.000000	0.000000	0.000000	0.000000	0.000000	-5.736787	-1.458705	3.008325	16.147570	-0.000001	0.000000	4.235641	-1.932959	-0.837864	-0.091407	0.000001	0.000000	-0.193142	0.699420	5.916661	5.115237	0.000001	0.000000	0.194563	-0.624189	-0.302088	0.000000	0.000000	0.000000
	62.3569	93.6202	-37.7101	-0.142453	21.820680	-2.033346	0.000000	0.000000	0.000000	1.517368	1.261543	0.232826	5.045161	4.222755	0.650349	1.293371	-0.106752	0.404399	1.603327	-0.071145	4.517784	0.000000	0.000000	-14.258660	17.604750	-7.736159	-66.234970	0.129640	-39.226220	0.031666	0.000000	0.000000	0.000000	0.000000	0.000000	0.000000	0.000000	0.000000	0.000000	0.000000	0.000000	0.000000	0.000000	0.000000	0.000000	0.000000	0.000000	0.000000	0.000000	0.000000	0.000000	0.000000	0.000000	0.000000	0.000000	0.000000	0.000000	0.000000	0.000000	0.000000	0.000000	0.000000	0.000000	0.000000	0.000000	0.000000	0.000000	0.000000	0.000000	0.000000	0.000000	0.000000	0.000000	0.000000	0.000000	0.000000	0.000000	0.000000	0.000000	0.000000	15.216020	18.933410	30.489680	56.247040	0.099438	31.812890	-0.016708	0.000002	0.000006	-0.000003	-0.000007	0.000000	-0.000002	0.000004	0.000000	0.000001	-0.000003	0.000000	-0.000001	-0.000007	0.000000	-0.000002	0.000004	0.000000	0.000001	-0.000003	0.000000	-0.000001	-0.000007	0.000000	-0.000002	0.000004	0.000000	0.000001	-0.000003	0.000000	-0.000001	-0.000007	0.000000	-0.000002	0.000004	0.000000	0.000001	-0.000003	0.000000	-0.000001	-0.000007	0.000000	-0.000002	0.000004	0.000000	0.000001	-0.000003	0.000000	-0.000001	-5.804479	-2.962741	3.299616	16.392390	0.000001	0.000000	4.398841	-1.435165	-0.635803	-0.718162	-0.000001	0.000000	-0.938510	0.295991	6.307879	6.460670	-0.000003	0.000000	0.648117	-0.346871	-0.160945	0.000000	-0.000002	0.000000
	62.1858	93.7524	-37.6509	-0.617513	22.389020	-2.351075	0.000000	0.000000	0.000000	1.716605	1.796911	0.563998	5.665841	6.050980	1.678999	1.037604	-0.269625	1.017978	0.879037	-0.094935	4.168577	-0.000001	-0.000006	-14.342920	16.908290	-6.868907	-67.084580	0.148269	-43.180200	0.042536	0.000001	0.000001	-0.000001	0.000000	0.000001	-0.000001	0.000000	0.000001	-0.000001	0.000000	0.000001	-0.000001	0.000000	0.000001	-0.000001	0.000000	0.000001	-0.000001	0.000000	0.000001	-0.000001	0.000000	0.000001	-0.000001	0.000000	0.000001	-0.000001	0.000000	0.000001	-0.000001	0.000000	0.000001	-0.000001	0.000000	0.000001	-0.000001	0.000000	0.000001	-0.000001	0.000000	0.000001	-0.000001	0.000000	0.000001	-0.000001	0.000000	0.000001	-0.000001	0.000001	-0.000002	14.906090	20.296840	30.104360	54.727380	0.113189	35.344350	-0.023069	-0.000005	0.000002	0.000009	-0.000004	0.000002	0.000004	0.000004	-0.000002	-0.000004	-0.000004	0.000002	0.000004	-0.000004	0.000002	0.000004	0.000004	-0.000002	-0.000004	-0.000004	0.000002	0.000004	-0.000004	0.000002	0.000004	0.000004	-0.000002	-0.000004	-0.000004	0.000002	0.000004	-0.000004	0.000002	0.000004	0.000004	-0.000002	-0.000004	-0.000004	0.000002	0.000004	-0.000004	0.000002	0.000004	0.000004	-0.000002	-0.000004	-0.000004	0.000002	0.000004	-5.461754	-1.910241	4.042591	16.299260	-0.000001	0.000000	6.987462	-0.780276	-0.344103	-2.820702	0.000002	0.000000	-0.777749	-0.169597	6.894610	6.306410	-0.000001	0.000000	2.610024	-0.454614	-0.227994	0.000000	0.000000	0.000000
